#Comment line ignore any data following # character 
#Hierarchical Translation and Rotation (.htr) file 
[Header]	
#Header keywords are followed by a single value 
FileType HTR		#Single word string
DataType HTRS		#Translation followed by rotation and scale data
FileVersion 1		#integer
NumSegments 84		#integer
NumFrames 2		#integer
DataFrameRate 30		#integer, data frame rate in this file
EulerRotationOrder ZYX
CalibrationUnits mm
RotationUnits Degrees
GlobalAxisofGravity Y
BoneLengthAxis Y
ScaleFactor 1.00
[SegmentNames&Hierarchy]
#CHILD	PARENT
MASTER GLOBAL
root MASTER
chest root
L_mid_tent01 root
R_mid_tent01 root
spine01 root
Bip01_Neck chest
L_humerus chest
R_humerus chest
weapon_bone chest
Bip01_Head Bip01_Neck
eye_left_bone Bip01_Head
eye_right_bone Bip01_Head
L_forearm L_humerus
L_front_hand L_forearm
L_weapon_bone L_forearm
L_front_hand01_01 L_front_hand
L_front_hand02_01 L_front_hand
L_front_hand03_01 L_front_hand
L_front_hand01_02 L_front_hand01_01
L_front_hand02_02 L_front_hand02_01
L_front_hand03_02 L_front_hand03_01
R_forearm R_humerus
R_front_hand R_forearm
R_weapon_bone R_forearm
R_front_hand01_01 R_front_hand
R_front_hand02_01 R_front_hand
R_front_hand03_01 R_front_hand
R_front_hand01_02 R_front_hand01_01
R_front_hand02_02 R_front_hand02_01
R_front_hand03_02 R_front_hand03_01
null_rope01_connect L_mid_tent01
Rope1_Seg01 null_rope01_connect
Rope1_Seg02 Rope1_Seg01
Rope1_Seg03 Rope1_Seg02
Rope1_Seg04 Rope1_Seg03
Rope1_Seg05 Rope1_Seg04
Rope1_Seg06 Rope1_Seg05
Rope1_Seg07 Rope1_Seg06
Rope1_Seg09 Rope1_Seg07
L_mid_hand01 Rope1_Seg09
L_mid_hand02 Rope1_Seg09
L_mid_hand03 Rope1_Seg09
null_rope02_connect R_mid_tent01
Rope2_Seg01 null_rope02_connect
Rope2_Seg02 Rope2_Seg01
Rope2_Seg03 Rope2_Seg02
Rope2_Seg04 Rope2_Seg03
Rope2_Seg05 Rope2_Seg04
Rope2_Seg06 Rope2_Seg05
Rope2_Seg07 Rope2_Seg06
Rope2_Seg09 Rope2_Seg07
R_mid_hand01 Rope2_Seg09
R_mid_hand02 Rope2_Seg09
R_mid_hand03 Rope2_Seg09
spine02 spine01
spine03 spine02
pelvis spine03
null_rope03_connect pelvis
null_rope04_connect pelvis
Rope3_Seg01 null_rope03_connect
Rope3_Seg02 Rope3_Seg01
Rope3_Seg03 Rope3_Seg02
Rope3_Seg04 Rope3_Seg03
Rope3_Seg05 Rope3_Seg04
Rope3_Seg06 Rope3_Seg05
Rope3_Seg07 Rope3_Seg06
Rope3_Seg08 Rope3_Seg07
Rope3_Seg09 Rope3_Seg08
R_rear_hand01 Rope3_Seg09
R_rear_hand02 Rope3_Seg09
R_rear_hand03 Rope3_Seg09
Rope4_Seg01 null_rope04_connect
Rope4_Seg02 Rope4_Seg01
Rope4_Seg03 Rope4_Seg02
Rope4_Seg04 Rope4_Seg03
Rope4_Seg05 Rope4_Seg04
Rope4_Seg06 Rope4_Seg05
Rope4_Seg07 Rope4_Seg06
Rope4_Seg08 Rope4_Seg07
Rope4_Seg09 Rope4_Seg08
L_rear_hand01 Rope4_Seg09
L_rear_hand02 Rope4_Seg09
L_rear_hand03 Rope4_Seg09
[BasePosition]
#SegmentName Tx, Ty, Tz, Rx, Ry, Rz, BoneLength
MASTER 0.000000 0.000000 0.000000 -90.000000 0.000000 0.000000 10.000000 
root 0.000000 0.000000 0.000000 0.000000 0.000000 0.000000 10.000000 
chest 0.000000 0.000000 0.000000 0.000000 0.000000 0.000000 10.000000 
L_mid_tent01 0.000000 0.000000 0.000000 0.000000 0.000000 0.000000 10.000000 
R_mid_tent01 0.000000 0.000000 0.000000 0.000000 0.000000 0.000000 10.000000 
spine01 0.000000 0.000000 0.000000 0.000000 0.000000 0.000000 10.000000 
Bip01_Neck 0.000000 0.000000 0.000000 0.000000 0.000000 0.000000 10.000000 
L_humerus 0.000000 0.000000 0.000000 0.000000 0.000000 0.000000 10.000000 
R_humerus 0.000000 0.000000 0.000000 0.000000 0.000000 0.000000 10.000000 
weapon_bone 0.000000 0.000000 0.000000 0.000000 0.000000 0.000000 10.000000 
Bip01_Head 0.000000 0.000000 0.000000 0.000000 0.000000 0.000000 10.000000 
eye_left_bone 0.000000 0.000000 0.000000 0.000000 0.000000 0.000000 10.000000 
eye_right_bone 0.000000 0.000000 0.000000 0.000000 0.000000 0.000000 10.000000 
L_forearm 0.000000 0.000000 0.000000 0.000000 0.000000 0.000000 10.000000 
L_front_hand 0.000000 0.000000 0.000000 0.000000 0.000000 0.000000 10.000000 
L_weapon_bone 0.000000 0.000000 0.000000 0.000000 0.000000 0.000000 10.000000 
L_front_hand01_01 0.000000 0.000000 0.000000 0.000000 0.000000 0.000000 10.000000 
L_front_hand02_01 0.000000 0.000000 0.000000 0.000000 0.000000 0.000000 10.000000 
L_front_hand03_01 0.000000 0.000000 0.000000 0.000000 0.000000 0.000000 10.000000 
L_front_hand01_02 0.000000 0.000000 0.000000 0.000000 0.000000 0.000000 10.000000 
L_front_hand02_02 0.000000 0.000000 0.000000 0.000000 0.000000 0.000000 10.000000 
L_front_hand03_02 0.000000 0.000000 0.000000 0.000000 0.000000 0.000000 10.000000 
R_forearm 0.000000 0.000000 0.000000 0.000000 0.000000 0.000000 10.000000 
R_front_hand 0.000000 0.000000 0.000000 0.000000 0.000000 0.000000 10.000000 
R_weapon_bone 0.000000 0.000000 0.000000 0.000000 0.000000 0.000000 10.000000 
R_front_hand01_01 0.000000 0.000000 0.000000 0.000000 0.000000 0.000000 10.000000 
R_front_hand02_01 0.000000 0.000000 0.000000 0.000000 0.000000 0.000000 10.000000 
R_front_hand03_01 0.000000 0.000000 0.000000 0.000000 0.000000 0.000000 10.000000 
R_front_hand01_02 0.000000 0.000000 0.000000 0.000000 0.000000 0.000000 10.000000 
R_front_hand02_02 0.000000 0.000000 0.000000 0.000000 0.000000 0.000000 10.000000 
R_front_hand03_02 0.000000 0.000000 0.000000 0.000000 0.000000 0.000000 10.000000 
null_rope01_connect 0.000000 0.000000 0.000000 0.000000 0.000000 0.000000 10.000000 
Rope1_Seg01 0.000000 0.000000 0.000000 0.000000 0.000000 0.000000 10.000000 
Rope1_Seg02 0.000000 0.000000 0.000000 0.000000 0.000000 0.000000 10.000000 
Rope1_Seg03 0.000000 0.000000 0.000000 0.000000 0.000000 0.000000 10.000000 
Rope1_Seg04 0.000000 0.000000 0.000000 0.000000 0.000000 0.000000 10.000000 
Rope1_Seg05 0.000000 0.000000 0.000000 0.000000 0.000000 0.000000 10.000000 
Rope1_Seg06 0.000000 0.000000 0.000000 0.000000 0.000000 0.000000 10.000000 
Rope1_Seg07 0.000000 0.000000 0.000000 0.000000 0.000000 0.000000 10.000000 
Rope1_Seg09 0.000000 0.000000 0.000000 0.000000 0.000000 0.000000 10.000000 
L_mid_hand01 0.000000 0.000000 0.000000 0.000000 0.000000 0.000000 10.000000 
L_mid_hand02 0.000000 0.000000 0.000000 0.000000 0.000000 0.000000 10.000000 
L_mid_hand03 0.000000 0.000000 0.000000 0.000000 0.000000 0.000000 10.000000 
null_rope02_connect 0.000000 0.000000 0.000000 0.000000 0.000000 0.000000 10.000000 
Rope2_Seg01 0.000000 0.000000 0.000000 0.000000 0.000000 0.000000 10.000000 
Rope2_Seg02 0.000000 0.000000 0.000000 0.000000 0.000000 0.000000 10.000000 
Rope2_Seg03 0.000000 0.000000 0.000000 0.000000 0.000000 0.000000 10.000000 
Rope2_Seg04 0.000000 0.000000 0.000000 0.000000 0.000000 0.000000 10.000000 
Rope2_Seg05 0.000000 0.000000 0.000000 0.000000 0.000000 0.000000 10.000000 
Rope2_Seg06 0.000000 0.000000 0.000000 0.000000 0.000000 0.000000 10.000000 
Rope2_Seg07 0.000000 0.000000 0.000000 0.000000 0.000000 0.000000 10.000000 
Rope2_Seg09 0.000000 0.000000 0.000000 0.000000 0.000000 0.000000 10.000000 
R_mid_hand01 0.000000 0.000000 0.000000 0.000000 0.000000 0.000000 10.000000 
R_mid_hand02 0.000000 0.000000 0.000000 0.000000 0.000000 0.000000 10.000000 
R_mid_hand03 0.000000 0.000000 0.000000 0.000000 0.000000 0.000000 10.000000 
spine02 0.000000 0.000000 0.000000 0.000000 0.000000 0.000000 10.000000 
spine03 0.000000 0.000000 0.000000 0.000000 0.000000 0.000000 10.000000 
pelvis 0.000000 0.000000 0.000000 0.000000 0.000000 0.000000 10.000000 
null_rope03_connect 0.000000 0.000000 0.000000 0.000000 0.000000 0.000000 10.000000 
null_rope04_connect 0.000000 0.000000 0.000000 0.000000 0.000000 0.000000 10.000000 
Rope3_Seg01 0.000000 0.000000 0.000000 0.000000 0.000000 0.000000 10.000000 
Rope3_Seg02 0.000000 0.000000 0.000000 0.000000 0.000000 0.000000 10.000000 
Rope3_Seg03 0.000000 0.000000 0.000000 0.000000 0.000000 0.000000 10.000000 
Rope3_Seg04 0.000000 0.000000 0.000000 0.000000 0.000000 0.000000 10.000000 
Rope3_Seg05 0.000000 0.000000 0.000000 0.000000 0.000000 0.000000 10.000000 
Rope3_Seg06 0.000000 0.000000 0.000000 0.000000 0.000000 0.000000 10.000000 
Rope3_Seg07 0.000000 0.000000 0.000000 0.000000 0.000000 0.000000 10.000000 
Rope3_Seg08 0.000000 0.000000 0.000000 0.000000 0.000000 0.000000 10.000000 
Rope3_Seg09 0.000000 0.000000 0.000000 0.000000 0.000000 0.000000 10.000000 
R_rear_hand01 0.000000 0.000000 0.000000 0.000000 0.000000 0.000000 10.000000 
R_rear_hand02 0.000000 0.000000 0.000000 0.000000 0.000000 0.000000 10.000000 
R_rear_hand03 0.000000 0.000000 0.000000 0.000000 0.000000 0.000000 10.000000 
Rope4_Seg01 0.000000 0.000000 0.000000 0.000000 0.000000 0.000000 10.000000 
Rope4_Seg02 0.000000 0.000000 0.000000 0.000000 0.000000 0.000000 10.000000 
Rope4_Seg03 0.000000 0.000000 0.000000 0.000000 0.000000 0.000000 10.000000 
Rope4_Seg04 0.000000 0.000000 0.000000 0.000000 0.000000 0.000000 10.000000 
Rope4_Seg05 0.000000 0.000000 0.000000 0.000000 0.000000 0.000000 10.000000 
Rope4_Seg06 0.000000 0.000000 0.000000 0.000000 0.000000 0.000000 10.000000 
Rope4_Seg07 0.000000 0.000000 0.000000 0.000000 0.000000 0.000000 10.000000 
Rope4_Seg08 0.000000 0.000000 0.000000 0.000000 0.000000 0.000000 10.000000 
Rope4_Seg09 0.000000 0.000000 0.000000 0.000000 0.000000 0.000000 10.000000 
L_rear_hand01 0.000000 0.000000 0.000000 0.000000 0.000000 0.000000 10.000000 
L_rear_hand02 0.000000 0.000000 0.000000 0.000000 0.000000 0.000000 10.000000 
L_rear_hand03 0.000000 0.000000 0.000000 0.000000 0.000000 0.000000 10.000000 
#Beginning of Data. Separated by tabs
#Fr	Tx	Ty	Tz	Rx	Ry	Rz	SF
[MASTER]
25 1774.857910 -6687.006348 1327.879028 0.000000 -0.002347 -90.000000 7044.816406
26 1975.232910 -6974.632324 1152.607056 0.000000 -0.002347 -90.000000 7339.996094
[root]
25 -215.694336 27.291967 680.547791 -78.076309 -13.522496 -150.978394 714.432800
26 -174.052902 22.818018 784.167236 -83.412552 -13.120740 -160.456390 803.575317
[chest]
25 -84.512650 -34.090519 0.000000 -3.037738 -4.203925 170.255615 91.129311
26 -84.512650 -34.090519 0.000000 -7.009027 -2.902616 171.667877 91.129311
[L_mid_tent01]
25 27.299902 22.177551 -249.918259 -17.813820 11.695351 -23.056000 252.381195
26 27.299917 22.177553 -249.918259 -17.844553 13.611039 -35.243202 252.381195
[R_mid_tent01]
25 23.228794 24.509907 226.238495 159.177795 4.622747 44.468544 228.744751
26 23.228794 24.509907 226.238495 161.313995 3.126395 57.613663 228.744751
[spine01]
25 -0.361383 -0.195265 0.000000 0.001687 0.001632 1.890996 0.410763
26 -0.361383 -0.195265 0.000000 0.001687 0.001632 1.890996 0.410763
[Bip01_Neck]
25 165.484543 71.581718 0.000119 176.643677 -1.657967 43.431915 180.302734
26 165.484543 71.581718 0.000119 176.643677 -1.657967 43.431911 180.302734
[L_humerus]
25 -13.983130 -135.272980 -120.471481 173.314911 -3.078270 -93.533073 181.680161
26 -13.983130 -135.272980 -120.471481 173.801025 -4.653354 -92.693802 181.680161
[R_humerus]
25 -13.983309 -135.273102 125.287651 -177.001480 6.076475 -85.221565 184.909012
26 -13.983309 -135.273102 125.287651 -176.994171 7.509118 -85.147377 184.909012
[weapon_bone]
25 235.964890 -300.705902 0.000000 0.000000 -89.951546 -128.212341 382.234833
26 235.964890 -300.705902 0.000000 0.000000 -89.951546 -128.212341 382.234833
[Bip01_Head]
25 213.371597 185.918106 9.160871 13.135188 5.082333 -42.713196 283.155273
26 213.376678 185.904083 9.342134 8.674786 5.513270 -43.168610 283.155823
[eye_left_bone]
25 -24.626970 125.451866 -64.772606 0.000000 -90.000000 -99.840431 143.318359
26 -24.626970 125.451866 -64.772606 0.000000 -90.000000 -99.840431 143.318359
[eye_right_bone]
25 -24.626970 125.451866 64.327362 0.000000 -89.965736 80.156380 143.117676
26 -24.626970 125.451866 64.327362 0.000000 -89.965736 80.156380 143.117676
[L_forearm]
25 322.776093 0.000000 -0.000119 0.000119 -0.002344 -95.807457 322.776093
26 322.776093 0.000000 -0.000119 0.000119 -0.002344 -95.807457 322.776093
[L_front_hand]
25 241.149185 -0.042021 -3.300071 -178.667953 -1.835447 -27.422350 241.171753
26 241.149185 -0.042021 -3.300071 -178.667953 -1.835447 -27.422350 241.171753
[L_weapon_bone]
25 156.183838 0.000000 0.000000 0.000014 0.000007 0.000001 156.183838
26 156.183838 0.000000 0.000000 0.000014 0.000007 0.000001 156.183838
[L_front_hand01_01]
25 86.095154 20.947098 -0.655860 -0.366594 -0.477154 75.385574 88.609184
26 86.095154 20.947098 -0.655860 -0.366594 -0.477154 75.385574 88.609184
[L_front_hand02_01]
25 86.935165 -11.437475 24.513514 154.399796 -59.883835 -61.369587 91.046425
26 86.935165 -11.437475 24.513514 154.399796 -59.883835 -61.369587 91.046425
[L_front_hand03_01]
25 86.637497 -14.123976 -20.424902 -153.913849 58.118122 -62.702866 90.126129
26 86.637497 -14.123976 -20.424902 -153.913849 58.118122 -62.702866 90.126129
[L_front_hand01_02]
25 71.020905 -0.000179 0.000030 0.000333 -0.002323 -106.330261 71.020905
26 71.020905 -0.000179 0.000030 0.000334 -0.002323 -106.367340 71.020905
[L_front_hand02_02]
25 71.020927 -0.000119 0.000060 0.000333 -0.002323 -106.330261 71.020927
26 71.020927 -0.000119 0.000060 0.000334 -0.002323 -106.367340 71.020927
[L_front_hand03_02]
25 71.020905 -0.000060 0.000060 0.000333 -0.002323 -106.330261 71.020905
26 71.020905 -0.000060 0.000060 0.000334 -0.002323 -106.367340 71.020905
[R_forearm]
25 322.776428 -0.000060 0.000030 0.209504 0.012586 -94.339058 322.776428
26 322.776428 -0.000060 0.000030 0.209504 0.012586 -94.339050 322.776428
[R_front_hand]
25 238.847015 -0.006795 2.210259 -2.635298 -10.645461 -26.312506 238.857239
26 238.847015 -0.006795 2.210259 -2.635298 -10.645461 -26.312506 238.857239
[R_weapon_bone]
25 155.664093 0.002503 -0.000030 0.003487 0.001180 -90.988930 155.664078
26 155.664093 0.002503 -0.000030 0.003487 0.001180 -90.988930 155.664078
[R_front_hand01_01]
25 87.624611 14.231146 22.918642 -154.633499 -59.950619 61.746044 91.683487
26 87.624611 14.231146 22.918642 -154.633499 -59.950634 61.746063 91.683487
[R_front_hand02_01]
25 89.356956 14.367283 -19.491137 154.602661 58.302849 63.744389 92.579636
26 89.356956 14.367283 -19.491137 154.602661 58.302849 63.744389 92.579636
[R_front_hand03_01]
25 87.286232 -22.307278 -0.143439 0.162155 -0.423168 -75.767921 90.091743
26 87.286232 -22.307278 -0.143439 0.162155 -0.423168 -75.767921 90.091743
[R_front_hand01_02]
25 71.020905 0.000060 0.000119 0.002323 -0.000334 106.381721 71.020905
26 71.020905 0.000060 0.000119 0.002323 -0.000334 106.381714 71.020905
[R_front_hand02_02]
25 71.020844 -0.000030 -0.000119 0.002323 -0.000334 106.381721 71.020836
26 71.020844 -0.000030 -0.000119 0.002323 -0.000334 106.381714 71.020836
[R_front_hand03_02]
25 71.020905 0.000000 0.000030 0.002323 -0.000334 106.381721 71.020905
26 71.020905 0.000000 0.000030 0.002323 -0.000334 106.381714 71.020905
[null_rope01_connect]
25 328.732483 0.000000 -0.000238 -73.700264 77.452637 -131.672913 328.732483
26 328.732483 0.000000 -0.000238 17.312351 85.922440 -28.367918 328.732483
[Rope1_Seg01]
25 0.000027 0.000533 0.000000 -42.263485 -60.312988 165.561569 0.000533
26 0.000028 0.000555 0.000000 -46.339794 -59.507629 170.733200 0.000556
[Rope1_Seg02]
25 139.999863 -0.000179 0.000000 -4.074158 -4.183907 -8.533842 139.999863
26 139.999863 -0.000179 0.000000 -5.055042 -6.349500 -6.539158 139.999863
[Rope1_Seg03]
25 139.999924 0.000060 -0.000060 -5.312565 -8.280766 -16.803402 139.999924
26 139.999924 0.000060 -0.000060 -7.284297 -9.865376 -12.028576 139.999924
[Rope1_Seg04]
25 139.999924 -0.000060 -0.000119 -2.299828 -6.306395 -23.066576 139.999924
26 139.999924 -0.000060 -0.000119 -7.540716 -13.730682 -20.657034 139.999924
[Rope1_Seg05]
25 139.999832 0.000119 -0.000060 -3.414599 24.885098 -6.829941 139.999832
26 139.999832 0.000119 -0.000060 -2.567687 -0.134776 -18.668383 139.999832
[Rope1_Seg06]
25 139.999954 0.000119 -0.000060 -10.709211 25.479555 -10.391005 139.999954
26 139.999954 0.000119 -0.000060 0.903757 7.069599 -32.715500 139.999954
[Rope1_Seg07]
25 139.999985 0.000060 0.000000 -5.848958 9.132051 -2.393628 139.999985
26 139.999985 0.000060 0.000000 9.825404 2.170893 -23.320784 139.999985
[Rope1_Seg09]
25 121.602913 0.000119 -0.000089 -89.793175 -1.359789 0.847147 121.602913
26 121.602913 0.000119 -0.000089 -89.793175 -1.359789 0.847147 121.602913
[L_mid_hand01]
25 103.859421 1.038730 8.195221 130.544373 -67.584534 -38.866943 104.187431
26 103.859421 1.038730 8.195221 130.544373 -67.584534 -38.866943 104.187431
[L_mid_hand02]
25 105.572853 -4.139662 -10.864139 -168.923172 43.409309 -73.498886 106.211075
26 105.572853 -4.139662 -10.864139 -168.923172 43.409309 -73.498886 106.211075
[L_mid_hand03]
25 104.641464 17.579376 -3.913581 -6.012627 17.808174 74.893669 106.179977
26 104.641464 17.579376 -3.913581 -6.012627 17.808174 74.893669 106.179977
[null_rope02_connect]
25 328.732849 0.000179 -0.000119 76.334740 -50.583336 -138.030838 328.732849
26 328.732849 0.000179 -0.000119 73.217087 -56.891514 -120.640228 328.732849
[Rope2_Seg01]
25 -0.000060 -0.000108 0.000000 47.283390 7.869789 132.509354 0.000123
26 -0.000059 -0.000104 0.000000 115.102226 19.902615 120.246902 0.000120
[Rope2_Seg02]
25 139.999741 -0.000060 -0.000119 50.095314 -10.757900 -15.376918 139.999756
26 139.999741 -0.000060 -0.000119 2.823983 -15.019721 4.685797 139.999756
[Rope2_Seg03]
25 140.000107 0.000030 0.000000 13.200957 -8.182518 -4.346235 140.000107
26 140.000107 0.000030 0.000000 3.771003 -7.973061 0.343947 140.000107
[Rope2_Seg04]
25 139.999802 0.000000 -0.000060 -1.097071 -7.971771 4.303200 139.999802
26 139.999802 0.000000 -0.000060 -0.748892 -6.569576 3.577334 139.999802
[Rope2_Seg05]
25 139.999985 -0.000060 0.000119 -7.974924 -15.159800 15.914641 139.999985
26 139.999985 -0.000060 0.000119 -7.925584 -16.498255 18.348114 139.999985
[Rope2_Seg06]
25 139.999893 -0.000030 -0.000119 -3.329359 -15.434100 12.347618 139.999893
26 139.999893 -0.000030 -0.000119 -4.932415 -21.501604 20.625380 139.999893
[Rope2_Seg07]
25 139.999893 0.000060 -0.000060 -0.869736 -10.180640 7.204154 139.999893
26 139.999893 0.000060 -0.000060 0.112009 -11.855037 10.017018 139.999893
[Rope2_Seg09]
25 121.338966 0.000089 -0.000060 33.793236 -1.359788 -0.847141 121.338966
26 121.338966 0.000089 -0.000060 33.793236 -1.359788 -0.847141 121.338966
[R_mid_hand01]
25 104.680779 11.144459 -10.335981 -18.585419 44.487877 67.094765 105.778534
26 104.680779 11.144459 -10.335981 -16.857136 45.048359 69.553459 105.778534
[R_mid_hand02]
25 104.070427 2.443552 8.231699 52.755070 -65.811363 35.278702 104.424065
26 104.070427 2.443552 8.231699 50.118130 -67.241341 38.150032 104.424065
[R_mid_hand03]
25 106.028137 -11.221827 -5.996406 -176.406250 15.411089 -73.996986 106.788818
26 106.028137 -11.221827 -5.996406 -176.912491 15.518668 -75.892761 106.788818
[spine02]
25 129.756927 0.001550 0.000119 -1.023899 -3.926965 6.770992 129.756927
26 129.756927 0.001550 0.000119 -1.023899 -3.926965 6.770993 129.756927
[spine03]
25 78.614082 0.087462 -4.898889 1.040681 4.146420 4.212376 78.766624
26 78.614090 0.087468 -4.898890 1.040681 4.146420 4.212376 78.766632
[pelvis]
25 169.435242 0.051022 0.000000 -24.588991 -0.190571 -10.718732 169.435257
26 169.435242 0.051022 0.000000 -36.311920 -0.189005 -10.720973 169.435257
[null_rope03_connect]
25 -1.257226 -2.466202 137.391083 -116.790688 60.541950 168.045120 137.418976
26 -1.257226 -2.466202 137.391083 -157.722595 57.880650 128.538208 137.418976
[null_rope04_connect]
25 -1.259640 -2.480268 -137.844437 -116.790688 60.541950 168.045120 137.872513
26 -1.259640 -2.480268 -137.844437 -157.722595 57.880650 128.538208 137.872513
[Rope3_Seg01]
25 0.000027 0.000533 0.000000 -138.720413 -16.616318 136.392776 0.000533
26 0.000028 0.000555 0.000000 -136.723663 -13.795482 136.893997 0.000556
[Rope3_Seg02]
25 139.999924 -0.000119 0.000060 6.780095 -7.503175 7.347657 139.999924
26 139.999924 -0.000119 0.000060 7.813170 -8.419669 10.971934 139.999924
[Rope3_Seg03]
25 139.999924 -0.000119 0.000119 7.113298 -9.003719 8.960485 139.999924
26 139.999924 -0.000119 0.000119 7.032963 -10.031523 17.726439 139.999924
[Rope3_Seg04]
25 139.999924 0.000119 0.000000 4.907307 -5.972526 10.144637 139.999924
26 139.999924 0.000119 0.000000 2.942056 -6.818453 18.127617 139.999924
[Rope3_Seg05]
25 139.999924 -0.000238 0.000060 -11.452341 -0.455194 83.432060 139.999924
26 139.999924 -0.000238 0.000060 -24.664707 -12.646059 69.753265 139.999924
[Rope3_Seg06]
25 139.999893 -0.000119 -0.000060 -59.920471 -8.356255 42.499134 139.999893
26 139.999893 -0.000119 -0.000060 -35.991783 -16.982285 32.922657 139.999893
[Rope3_Seg07]
25 139.999771 0.000060 -0.000119 -5.869803 -3.897268 1.440346 139.999771
26 139.999771 0.000060 -0.000119 -6.742980 -6.553679 3.728322 139.999771
[Rope3_Seg08]
25 139.999985 -0.000060 0.000000 0.605011 0.046194 -0.007978 139.999985
26 139.999985 -0.000060 0.000000 -2.073028 -2.669116 1.133559 139.999985
[Rope3_Seg09]
25 90.185997 -0.000179 -0.000060 89.793228 -1.359877 -0.847183 90.185997
26 90.185997 -0.000179 -0.000060 89.793228 -1.359877 -0.847183 90.185997
[R_rear_hand01]
25 103.366196 -6.073594 -10.757982 -176.652328 24.449373 -71.361534 104.101845
26 103.366196 -6.073594 -10.757982 -177.431534 24.540594 -73.234833 104.101845
[R_rear_hand02]
25 100.509819 12.039542 -7.992327 -14.552655 36.319771 69.354698 101.543350
26 100.509819 12.039542 -7.992327 -13.326712 36.728550 71.413712 101.543350
[R_rear_hand03]
25 101.539970 5.215704 5.435467 73.490219 -69.598801 19.389954 101.819031
26 101.539970 5.215704 5.435467 72.062195 -71.230423 20.902857 101.819031
[Rope4_Seg01]
25 0.000004 0.000554 -0.000153 8.497085 -13.358257 148.499634 0.000575
26 0.000004 0.000576 -0.000153 19.832851 -13.839277 138.684982 0.000596
[Rope4_Seg02]
25 139.999985 0.000060 0.000119 2.075665 -12.143478 -7.167624 139.999985
26 139.999985 0.000060 0.000119 -2.213238 -13.532147 -2.789563 139.999985
[Rope4_Seg03]
25 139.999924 0.000000 -0.000238 2.340457 -25.871542 -11.785961 139.999924
26 139.999924 0.000000 -0.000238 -2.181753 -29.367191 -3.809794 139.999924
[Rope4_Seg04]
25 139.999985 0.000000 0.000119 3.893977 -26.691113 -16.599600 139.999985
26 139.999985 0.000000 0.000119 4.493148 -33.666996 -10.769134 139.999985
[Rope4_Seg05]
25 139.999802 -0.000060 -0.000119 -8.287083 -4.096547 -22.881992 139.999802
26 139.999802 -0.000060 -0.000119 -15.913069 -18.676168 -29.592089 139.999802
[Rope4_Seg06]
25 139.999924 0.000000 0.000060 -7.279669 -1.469089 -12.798079 139.999924
26 139.999924 0.000000 0.000060 -21.772583 -3.980072 -14.867393 139.999924
[Rope4_Seg07]
25 139.999802 0.000000 0.000000 -4.925272 -0.478747 -7.239742 139.999802
26 139.999802 0.000000 0.000000 -13.231207 0.308257 -6.938934 139.999802
[Rope4_Seg08]
25 139.999924 0.000000 0.000119 -4.242107 0.072607 -3.564934 139.999924
26 139.999924 0.000000 0.000119 -8.938553 0.977011 -3.458544 139.999924
[Rope4_Seg09]
25 90.185791 0.000060 0.000060 -135.617828 2.228885 0.850567 90.185791
26 90.185791 0.000060 0.000060 -135.617828 2.228885 0.850567 90.185791
[L_rear_hand01]
25 101.696655 -8.392275 -7.654577 -12.874829 -36.868488 107.832764 102.329041
26 101.696655 -8.392275 -7.654577 -12.874832 -36.868492 107.832764 102.329041
[L_rear_hand02]
25 102.726799 -1.568258 5.773216 71.484581 71.816628 158.486160 102.900848
26 102.726799 -1.568258 5.773216 71.484619 71.816643 158.486176 102.900848
[L_rear_hand03]
25 104.552910 9.721220 -10.420293 -177.714203 -24.565960 -106.089035 105.519653
26 104.552910 9.721220 -10.420293 -177.714203 -24.565960 -106.089035 105.519653
